<svg width="544" height="157" viewBox="0 0 544 157" fill="none" xmlns="http://www.w3.org/2000/svg">
<path d="M78.12 102.922L0 150.022L82.32 0L78.12 102.922Z" fill="#E22B25"/>
<path d="M87.36 102.922L85.6807 3.48828L167.16 150.894L87.36 102.922Z" fill="#2282DF"/>
<path d="M84.84 107.283L166.874 155.373L3.19302 154.94L84.84 107.283Z" fill="#F2C923"/>
<path d="M230.11 151.195L187.6 24.64L191.89 27.76L172.975 24.25V15.865L224.455 14.89V23.275L203.2 27.37L205.15 23.275L241.03 136.96H238.495L276.91 24.25L278.47 27.565L257.605 24.25V15.865L306.355 14.89V23.275L287.44 27.37L291.535 24.25L246.88 151.195H230.11ZM345.091 152.755C336.381 152.755 329.231 150.09 323.641 144.76C318.051 139.43 315.256 131.24 315.256 120.19V57.985L317.206 60.715L300.046 57.01V48.625L330.856 47.455V117.46C330.856 125.26 332.676 131.045 336.316 134.815C339.956 138.585 344.831 140.47 350.941 140.47C355.751 140.47 360.951 139.17 366.541 136.57C372.261 133.97 377.851 129.94 383.311 124.48L381.946 127.99V57.595L383.896 60.715L366.736 57.01V48.625L397.546 47.26V141.445L395.206 138.91L412.951 142.225V150.805L385.456 151.975L383.116 132.67L385.456 133.45C378.956 140.08 372.196 144.955 365.176 148.075C358.156 151.195 351.461 152.755 345.091 152.755ZM453.339 141.055L451.584 138.91L468.549 142.615V151H422.334V142.615L439.299 138.91L437.739 141.055V11.965L439.299 13.72L422.334 10.21V1.82499L453.339 0.459997V141.055ZM515.185 152.755C508.425 152.755 503.095 150.675 499.195 146.515C495.295 142.225 493.345 135.79 493.345 127.21V56.425L495.88 58.96H475.795V50.38L496.075 47.455L493.345 50.575V24.835L508.945 22.3V50.575L506.8 48.04H537.415L536.83 58.96H506.8L508.945 56.425V125.065C508.945 130.525 509.985 134.49 512.065 136.96C514.275 139.43 517.33 140.665 521.23 140.665C523.57 140.665 526.105 140.275 528.835 139.495C531.565 138.715 534.49 137.61 537.61 136.18L540.925 145.15C531.695 150.22 523.115 152.755 515.185 152.755Z" fill="black"/>
</svg>
