<svg width="2442" height="800" viewBox="0 0 2442 800" fill="none" xmlns="http://www.w3.org/2000/svg">
<g clip-path="url(#clip0_358_3)">
<path d="M2441.29 400L2436.73 404.563C2436.46 404.836 2436.18 405.108 2435.91 405.38C2435.64 405.652 2435.37 405.925 2435.1 406.197L2431.83 409.458C2431.56 409.729 2431.29 410 2431.02 410.271C2430.75 410.543 2430.48 410.814 2430.21 411.085L2410.86 430.437C2410.59 430.703 2410.32 430.969 2410.06 431.235C2409.79 431.502 2409.52 431.769 2409.26 432.035L2389.44 451.856C2389.17 452.119 2388.91 452.38 2388.65 452.643C2388.39 452.905 2388.13 453.168 2387.86 453.43L2382.37 458.923C2382.11 459.184 2381.85 459.444 2381.59 459.705C2381.33 459.966 2381.07 460.227 2380.8 460.488L2380.02 461.271C2379.76 461.531 2379.5 461.791 2379.24 462.052C2378.98 462.312 2378.72 462.574 2378.46 462.834L2360.59 480.7C2360.34 480.958 2360.08 481.215 2359.82 481.473C2359.56 481.73 2359.31 481.988 2359.05 482.245L2352.88 488.411C2352.63 488.668 2352.37 488.923 2352.11 489.18C2351.86 489.436 2351.6 489.693 2351.34 489.949L2342.14 499.153C2341.88 499.408 2341.63 499.663 2341.37 499.918C2341.12 500.173 2340.86 500.429 2340.61 500.684L2336.79 504.504C2336.53 504.758 2336.28 505.012 2336.03 505.267C2335.77 505.521 2335.52 505.776 2335.26 506.03L2327.65 513.647C2327.39 513.901 2327.14 514.154 2326.88 514.407C2326.63 514.661 2326.38 514.915 2326.12 515.168L2323.85 517.447C2323.59 517.7 2323.34 517.953 2323.09 518.206C2322.83 518.459 2322.58 518.713 2322.33 518.966L2313.99 527.303C2313.74 527.555 2313.48 527.807 2313.23 528.06C2312.98 528.312 2312.73 528.564 2312.48 528.816L2301.15 540.147C2300.89 540.399 2300.64 540.65 2300.39 540.901C2300.14 541.153 2299.89 541.405 2299.64 541.656L2274.05 567.238C2273.8 567.489 2273.55 567.739 2273.3 567.989C2273.05 568.24 2272.8 568.491 2272.55 568.741L2271.05 570.243C2270.8 570.494 2270.55 570.744 2270.3 570.994C2270.05 571.245 2269.8 571.496 2269.55 571.746L2265.79 575.501C2265.54 575.751 2265.29 576.002 2265.04 576.252C2264.79 576.502 2264.54 576.754 2264.29 577.004L2247.01 594.284C2246.76 594.535 2246.51 594.785 2246.26 595.035C2246.01 595.286 2245.76 595.537 2245.51 595.787L2244.75 596.539C2244.5 596.79 2244.25 597.04 2244 597.291C2243.75 597.542 2243.5 597.793 2243.25 598.044L2241.75 599.548C2241.49 599.799 2241.24 600.049 2240.99 600.3C2240.74 600.551 2240.49 600.802 2240.24 601.053C2239.99 601.304 2239.74 601.554 2239.49 601.805C2239.24 602.055 2238.99 602.307 2238.74 602.558L2221.4 619.897C2221.14 620.149 2220.89 620.401 2220.64 620.652C2220.39 620.904 2220.14 621.156 2219.88 621.408L2208.53 632.764C2208.28 633.016 2208.02 633.269 2207.77 633.521C2207.52 633.774 2207.27 634.027 2207.01 634.28C2206.76 634.533 2206.51 634.786 2206.25 635.039C2206 635.292 2205.75 635.546 2205.49 635.799L2199.41 641.879C2199.16 642.133 2198.91 642.386 2198.65 642.64C2198.4 642.893 2198.15 643.148 2197.89 643.401L2194.84 646.449C2194.59 646.703 2194.34 646.957 2194.08 647.211C2193.83 647.465 2193.57 647.72 2193.32 647.975L2183.38 657.914C2183.12 658.169 2182.87 658.424 2182.61 658.68C2182.36 658.935 2182.1 659.192 2181.85 659.447L2177.24 664.054C2176.98 664.31 2176.73 664.566 2176.47 664.822C2176.21 665.079 2175.96 665.335 2175.7 665.592L2157.14 684.152C2156.88 684.412 2156.62 684.67 2156.36 684.93C2156.1 685.189 2155.84 685.449 2155.58 685.708L2150.91 690.386C2150.65 690.646 2150.39 690.906 2150.13 691.166C2149.87 691.426 2149.61 691.688 2149.34 691.948L2133.63 707.662C2133.37 707.925 2133.1 708.189 2132.84 708.452C2132.58 708.716 2132.31 708.98 2132.05 709.243L2130.47 710.826C2130.2 711.09 2129.94 711.354 2129.67 711.618C2129.41 711.882 2129.15 712.147 2128.88 712.411L2114.53 726.763C2114.26 727.03 2113.99 727.297 2113.73 727.564C2113.46 727.832 2113.19 728.1 2112.93 728.367L2105.68 735.615C2105.41 735.884 2105.14 736.153 2104.87 736.423C2104.6 736.692 2104.33 736.962 2104.06 737.231L2086.13 755.166C2085.85 755.44 2085.58 755.713 2085.3 755.987C2085.03 756.261 2084.76 756.536 2084.48 756.811L2072.9 768.394C2072.62 768.671 2072.34 768.948 2072.07 769.226C2071.79 769.503 2071.51 769.781 2071.23 770.059L2058.66 782.633C2058.38 782.914 2058.1 783.195 2057.82 783.477C2057.53 783.758 2057.25 784.04 2056.97 784.321L2042.5 798.789C2042.34 798.957 2042.17 799.124 2042 799.292L1986.15 743.438L2289.23 440.354L2290.09 439.5H1V360.5H2290.09L2289.23 359.646L1985.31 55.7266L2041.99 0.701172L2441.29 400Z" fill="black" stroke="black"/>
</g>
<defs>
<clipPath id="clip0_358_3">
<rect width="2442" height="800" fill="white"/>
</clipPath>
</defs>
</svg>
